<?xml version="1.0" standalone="no"?>
<!DOCTYPE svg PUBLIC "-//W3C//DTD SVG 20010904//EN"
 "http://www.w3.org/TR/2001/REC-SVG-20010904/DTD/svg10.dtd">
<svg version="1.0" xmlns="http://www.w3.org/2000/svg"
 width="1024.000000pt" height="1024.000000pt" viewBox="0 0 1024.000000 1024.000000"
 preserveAspectRatio="xMidYMid meet">
<metadata>
Created by potrace 1.11, written by Peter Selinger 2001-2013
</metadata>
<g transform="translate(0.000000,1024.000000) scale(0.100000,-0.100000)"
fill="#000000" stroke="none">
<path d="M6110 9548 c-107 -28 -185 -72 -260 -148 -103 -104 -139 -198 -121
-322 5 -32 101 -88 152 -88 18 0 19 -15 13 -437 -3 -241 -7 -478 -9 -528 -19
-557 -24 -1419 -11 -2180 12 -719 14 -810 31 -1465 5 -174 15 -489 20 -625 2
-49 6 -160 9 -245 8 -194 15 -369 21 -485 3 -49 7 -139 10 -200 12 -259 15
-314 20 -385 3 -41 8 -106 10 -145 9 -133 15 -210 20 -255 14 -128 27 -231 35
-280 19 -105 21 -113 31 -131 8 -16 2 -24 -41 -50 -80 -49 -183 -169 -235
-273 -121 -247 -55 -387 200 -423 93 -12 420 -6 525 11 14 3 66 10 115 16 50
6 109 15 133 21 23 5 59 12 80 15 82 13 325 75 452 117 426 139 868 387 1184
665 48 42 279 274 316 318 175 204 311 395 443 624 53 92 170 338 217 455 28
72 55 139 60 150 24 54 132 418 144 485 2 14 13 63 24 110 17 69 61 319 77
430 11 79 15 110 20 160 3 30 8 71 10 90 2 19 7 67 10 105 3 39 7 99 10 135
20 242 20 825 0 930 -2 9 -6 56 -10 106 -3 49 -8 96 -10 104 -2 8 -7 38 -10
65 -22 179 -76 439 -135 650 -31 110 -119 368 -148 435 -9 19 -16 37 -17 40
-10 33 -141 311 -175 370 -154 267 -265 440 -351 545 -9 11 -52 63 -95 115
-121 148 -340 363 -529 519 -44 36 -214 160 -285 208 -448 301 -1044 547
-1608 663 -144 30 -249 32 -342 8z m756 -839 c583 -255 1043 -604 1389 -1053
238 -310 419 -668 544 -1081 47 -155 70 -260 116 -525 51 -292 62 -733 30
-1184 -3 -32 -7 -75 -10 -95 -2 -20 -7 -58 -10 -86 -7 -70 -16 -135 -30 -225
-2 -14 -7 -45 -10 -70 -4 -25 -18 -103 -32 -175 -14 -71 -27 -140 -29 -152
-12 -66 -91 -336 -134 -458 -175 -505 -411 -898 -742 -1235 -212 -217 -446
-378 -718 -496 -69 -29 -215 -84 -226 -84 -4 0 -13 51 -19 111 -3 31 -7 65 -9
75 -2 11 -7 55 -11 99 -3 44 -8 96 -10 115 -2 19 -6 73 -9 120 -7 90 -15 202
-21 285 -6 75 -14 209 -20 310 -6 116 -14 242 -20 330 -9 120 -20 319 -30 520
-3 50 -7 133 -10 185 -9 148 -14 255 -20 388 -3 68 -7 167 -10 220 -10 189
-20 429 -30 697 -3 88 -8 210 -10 270 -7 174 -16 457 -20 610 -2 77 -7 241
-10 365 -14 529 -26 1409 -27 1960 0 311 0 320 6 320 2 0 65 -27 142 -61z"/>
<path d="M2570 9444 c-151 -22 -221 -40 -390 -101 -291 -105 -495 -237 -726
-467 -180 -181 -284 -317 -426 -561 -48 -81 -162 -323 -201 -425 -88 -228
-218 -678 -241 -831 -3 -20 -8 -42 -10 -50 -3 -8 -7 -31 -10 -51 -3 -21 -10
-57 -15 -80 -5 -24 -12 -67 -16 -97 -4 -30 -8 -62 -10 -72 -2 -9 -6 -39 -10
-66 -4 -26 -9 -59 -11 -73 -2 -14 -6 -50 -10 -80 -3 -30 -7 -66 -9 -80 -2 -14
-7 -63 -10 -110 -4 -47 -8 -105 -10 -130 -16 -196 -19 -308 -20 -610 0 -311 9
-635 20 -700 2 -14 6 -70 10 -125 6 -100 8 -125 20 -245 7 -65 10 -96 20 -180
3 -25 8 -67 11 -95 5 -43 14 -112 29 -205 6 -42 25 -173 30 -210 3 -19 7 -46
10 -60 2 -14 7 -36 9 -50 3 -14 22 -110 42 -215 41 -215 37 -197 59 -290 9
-38 18 -77 20 -85 39 -174 191 -663 245 -785 10 -22 34 -80 55 -130 48 -115
170 -360 224 -448 22 -37 41 -69 41 -71 0 -3 25 -41 55 -85 241 -359 500 -596
820 -751 144 -70 211 -93 347 -120 356 -70 729 -37 1065 93 185 72 406 204
578 347 61 50 245 237 300 305 119 145 261 377 329 535 15 36 34 80 43 98 26
58 103 302 119 376 9 39 17 79 20 89 11 45 21 104 28 162 2 17 7 55 11 85 20
150 20 439 0 570 -42 274 -104 476 -217 710 -111 228 -266 456 -412 607 -27
29 -48 54 -45 57 2 2 54 7 114 10 231 13 309 28 414 80 75 36 159 113 190 174
66 130 74 349 16 449 -54 91 -154 118 -369 99 -44 -4 -82 -8 -85 -10 -3 -2
-31 -7 -62 -10 -31 -4 -67 -9 -80 -11 -24 -5 -68 -10 -171 -20 -29 -3 -64 -7
-78 -10 -24 -4 -50 -7 -210 -20 -36 -3 -83 -8 -105 -10 -22 -2 -83 -7 -135
-10 -52 -3 -126 -8 -165 -10 -38 -3 -113 -7 -165 -10 -52 -3 -113 -7 -136 -10
-29 -4 -63 3 -125 26 -249 92 -475 139 -644 134 -93 -2 -141 -16 -210 -60
-172 -110 -287 -316 -294 -527 -3 -82 12 -108 77 -138 53 -25 228 -66 317 -74
56 -6 92 -9 202 -20 22 -3 83 -8 135 -12 143 -10 293 -73 498 -210 52 -35 109
-75 125 -89 206 -178 341 -339 462 -552 159 -282 237 -570 237 -873 -1 -191
-28 -360 -91 -555 -121 -377 -315 -674 -568 -870 -176 -135 -325 -191 -524
-194 -253 -5 -442 88 -632 309 -233 273 -416 655 -579 1210 -17 57 -33 117
-36 134 -3 16 -7 32 -9 35 -3 6 -61 246 -70 291 -2 8 -12 60 -24 115 -11 55
-23 116 -26 135 -3 19 -10 53 -15 75 -8 34 -24 128 -35 200 -23 144 -35 224
-39 241 -2 11 -7 47 -11 80 -9 81 -13 113 -19 154 -2 19 -7 58 -11 85 -3 28
-8 64 -10 80 -12 100 -16 134 -31 300 -9 110 -15 172 -19 205 -2 19 -7 87 -10
150 -4 63 -8 138 -11 165 -6 74 -7 561 0 630 3 33 8 94 11 135 6 74 21 223 31
290 3 19 7 58 10 85 11 114 77 479 115 630 5 22 11 47 14 56 13 58 72 261 102
354 209 648 552 1088 938 1204 94 28 175 38 292 35 174 -4 290 -49 411 -160
81 -73 127 -139 246 -347 108 -189 150 -249 227 -325 143 -141 303 -200 514
-190 175 9 221 53 212 202 -7 110 -11 126 -78 301 -76 201 -147 343 -240 482
-163 242 -394 447 -624 553 -115 54 -117 55 -195 78 -93 28 -157 41 -300 61
-92 12 -329 10 -430 -5z"/>
</g>
</svg>
